<svg xmlns="http://www.w3.org/2000/svg" width="142" height="45" fill="none" viewBox="0 0 142 45">
  <path fill="#fff" d="M7.77 32.105C7.207 32.035 6.123 32 4.518 32H3.11V8.55c.75.048 1.576.071 2.479.071.902 0 1.54-.047 1.916-.14l5.906 10.037L19.09 8.48c.375.094 1.09.141 2.144.141 1.055 0 1.957-.023 2.707-.07V32h-1.406c-1.605 0-2.69.035-3.252.105v-15.75L13.535 26.64 7.77 17.182v14.924Zm54.07 0c-.563-.07-1.647-.105-3.252-.105h-1.406V8.55c.75.048 1.576.071 2.478.071.903 0 1.541-.047 1.916-.14l5.906 10.037L73.16 8.48c.375.094 1.09.141 2.145.141 1.054 0 1.957-.023 2.707-.07V32h-1.406c-1.606 0-2.69.035-3.252.105v-15.75L67.605 26.64l-5.766-9.457v14.924Zm34.084-4.324c.726 0 1.23-.07 1.511-.21l.07.017L97.33 32H84.164V8.498c.317.023.668.041 1.055.053l1.23.035c.82.023 1.711.035 2.672.035 2.684 0 5.338-.047 7.963-.14-.129 1.03-.193 2.408-.193 4.13 0 .188.011.329.035.422l-.035.053c-.61-.176-1.477-.264-2.602-.264h-5.537v4.483h4.166c1.289 0 2.063-.035 2.32-.106l.053 4.342a21.837 21.837 0 0 0-2.18-.088h-4.359v6.328h7.172ZM102.357 32c.071-.398.106-.832.106-1.3V8.62h3.516l9.316 14.66V9.816c0-.644-.059-1.043-.176-1.195h4.746c-.058.469-.088.984-.088 1.547V32h-3.656l-9.176-14.08V32h-4.588Zm32.186.105c-.563-.07-2.01-.105-4.342-.105h-.562V12.559h-3.481c-1.031 0-1.64.052-1.828.158a3.66 3.66 0 0 0-.439.281l-.053-.018v-4.5l.053-.052c.386.129 1.429.193 3.129.193h11.021c1.031 0 1.641-.053 1.828-.158.188-.106.334-.2.44-.281l.052.017v4.5l-.052.053c-.387-.129-1.43-.193-3.129-.193h-2.637v19.547Z"/>
  <rect width="24" height="24" x="28" y="8" fill="#fff" rx="12"/>
  <path fill="#000" d="M40 13.438a5.162 5.162 0 0 0-5.156 5.156c0 4.412 4.687 7.746 4.886 7.887a.486.486 0 0 0 .54 0c.199-.14 4.886-3.475 4.886-7.887A5.161 5.161 0 0 0 40 13.438Zm0 3.281a1.875 1.875 0 1 1 0 3.75 1.875 1.875 0 0 1 0-3.75Z"/>
</svg>
